<?xml version="1.0" encoding="utf-8"?>
<!-- Generator: Adobe Illustrator 25.4.1, SVG Export Plug-In . SVG Version: 6.00 Build 0)  -->
<svg version="1.1" id="Слой_1" xmlns="http://www.w3.org/2000/svg" xmlns:xlink="http://www.w3.org/1999/xlink" x="0px" y="0px"
	 viewBox="0 0 32.2 12" style="enable-background:new 0 0 32.2 12;" xml:space="preserve">
<style type="text/css">
	
		.st0{opacity:0.6;fill:none;stroke:#F5F6F7;stroke-width:0.9882;stroke-linecap:square;stroke-miterlimit:10;enable-background:new    ;}
</style>
<path class="st0" d="M-483.4,1c8.1,0,8.1,10,16.1,10c8.1,0,8.1-10,16.1-10c8.1,0,8.1,10,16.1,10C-427,11-427,1-419,1
	c8.1,0,8.1,10,16.1,10c8.1,0,8.1-10,16.1-10c8.1,0,8.1,10,16.1,10c8.1,0,8.1-10,16.1-10c8.1,0,8.1,10,16.1,10c8.1,0,8.1-10,16.1-10
	c8.1,0,8.1,10,16.1,10s8.1-10,16.1-10c8.1,0,8.1,10,16.1,10c8.1,0,8.1-10,16.1-10c8.1,0,8.1,10,16.1,10c8.1,0,8.1-10,16.1-10
	c8.1,0,8.1,10,16.1,10c8.1,0,8.1-10,16.1-10c8.1,0,8.1,10,16.1,10c8.1,0,8.1-10,16.1-10c8.1,0,8.1,10,16.1,10c8.1,0,8.1-10,16.1-10
	c8.1,0,8.1,10,16.1,10c8.1,0,8.1-10,16.1-10c8.1,0,8.1,10,16.1,10c8.1,0,8.1-10,16.1-10c8.1,0,8.1,10,16.1,10c8.1,0,8.1-10,16.1-10
	s8.1,10,16.1,10C-8,11-8,1,0,1c8.1,0,8.1,10,16.1,10c8.1,0,8.1-10,16.1-10c8.1,0,8.1,10,16.1,10c8.1,0,8.1-10,16.1-10
	s8.1,10,16.1,10c8.1,0,8.1-10,16.1-10s8.1,10,16.1,10c8.1,0,8.1-10,16.1-10S137,11,145,11c8.1,0,8.1-10,16.1-10
	c8.1,0,8.1,10,16.1,10c8.1,0,8.1-10,16.1-10c8.1,0,8.1,10,16.1,10c8.1,0,8.1-10,16.1-10 M226.6,1c8.1,0,8.1,10,16.1,10
	s8.1-10,16.1-10c8.1,0,8.1,10,16.1,10C283,11,283,1,291,1c8.1,0,8.1,10,16.1,10c8.1,0,8.1-10,16.1-10c8.1,0,8.1,10,16.1,10
	c8.1,0,8.1-10,16.1-10c8.1,0,8.1,10,16.1,10c8.1,0,8.1-10,16.1-10c8.1,0,8.1,10,16.1,10c8.1,0,8.1-10,16.1-10C428,1,428,11,436,11
	c8.1,0,8.1-10,16.1-10c8.1,0,8.1,10,16.1,10c8.1,0,8.1-10,16.1-10c8.1,0,8.1,10,16.1,10c8.1,0,8.1-10,16.1-10"/>
</svg>
