<svg width="32.9" height="12" viewBox="0 0 32.9 12" fill="none" stroke="#f5f6f7" stroke-linecap="square" stroke-miterlimit="10" xmlns="http://www.w3.org/2000/svg">
<path d="M-33,1c8.2,0,8.2,10,16.5,10C-8.3,11-8.3,1,0,1c8.2,0,8.2,10,16.5,10C24.7,11,24.7,1,33,1c8.2,0,8.2,10,16.5,10
	C57.7,11,57.7,1,66,1c8.2,0,8.2,10,16.5,10C90.7,11,90.7,1,99,1s8.2,10,16.5,10c8.2,0,8.2-10,16.5-10s8.2,10,16.5,10
	c8.2,0,8.2-10,16.5-10s8.2,10,16.5,10c8.2,0,8.2-10,16.5-10c8.2,0,8.2,10,16.5,10c8.2,0,8.2-10,16.5-10c8.2,0,8.2,10,16.5,10
	c8.2,0,8.2-10,16.5-10c8.2,0,8.2,10,16.5,10c8.2,0,8.2-10,16.5-10s8.2,10,16.5,10c8.2,0,8.2-10,16.5-10c8.2,0,8.2,10,16.5,10
	c8.2,0,8.2-10,16.5-10c8.2,0,8.2,10,16.5,10c8.2,0,8.2-10,16.5-10c8.2,0,8.2,10,16.5,10"/>
</svg>
