<?xml version="1.0" encoding="utf-8"?>
<!-- Generator: Adobe Illustrator 25.4.1, SVG Export Plug-In . SVG Version: 6.00 Build 0)  -->
<svg version="1.1" id="Слой_1" xmlns="http://www.w3.org/2000/svg" xmlns:xlink="http://www.w3.org/1999/xlink" x="0px" y="0px"
	 viewBox="0 0 33 12" style="enable-background:new 0 0 33 12;" xml:space="preserve">
<style type="text/css">
	.st0{opacity:0.6;fill:none;stroke:#F5F6F7;stroke-linecap:square;stroke-miterlimit:10;enable-background:new    ;}
</style>
<path class="st0" d="M-494.9,1c8.2,0,8.2,10,16.5,10s8.2-10,16.5-10c8.2,0,8.2,10,16.5,10c8.2,0,8.2-10,16.5-10
	c8.2,0,8.2,10,16.5,10c8.2,0,8.2-10,16.5-10c8.2,0,8.2,10,16.5,10c8.2,0,8.2-10,16.5-10c8.2,0,8.2,10,16.5,10c8.2,0,8.2-10,16.5-10
	c8.2,0,8.2,10,16.5,10c8.2,0,8.2-10,16.5-10c8.2,0,8.2,10,16.5,10c8.2,0,8.2-10,16.5-10c8.2,0,8.2,10,16.5,10c8.2,0,8.2-10,16.5-10
	c8.2,0,8.2,10,16.5,10c8.2,0,8.2-10,16.5-10c8.2,0,8.2,10,16.5,10c8.2,0,8.2-10,16.5-10s8.2,10,16.5,10c8.2,0,8.2-10,16.5-10
	s8.2,10,16.5,10c8.2,0,8.2-10,16.5-10c8.2,0,8.2,10,16.5,10c8.2,0,8.2-10,16.5-10 M-65.9,1c8.2,0,8.2,10,16.5,10
	c8.2,0,8.2-10,16.5-10c8.2,0,8.2,10,16.5,10C-8.2,11-8.2,1,0.1,1c8.2,0,8.2,10,16.4,10S24.7,1,33,1c8.2,0,8.2,10,16.5,10
	C57.7,11,57.7,1,66,1s8.2,10,16.5,10C90.7,11,90.7,1,99,1c8.2,0,8.2,10,16.5,10c8.2,0,8.2-10,16.5-10s8.2,10,16.5,10
	c8.2,0,8.2-10,16.5-10c8.2,0,8.2,10,16.5,10c8.2,0,8.2-10,16.5-10c8.2,0,8.2,10,16.5,10c8.2,0,8.2-10,16.5-10c8.2,0,8.2,10,16.5,10
	c8.2,0,8.2-10,16.5-10c8.2,0,8.2,10,16.5,10s8-10,16.2-10s8.2,10,16.5,10c8.2,0,8.2-10,16.5-10c8.2,0,8.2,10,16.5,10
	c8.2,0,8.2-10,16.5-10c8.2,0,8.2,10,16.5,10s8.2-10,16.5-10c8.2,0,8.2,10,16.5,10c8.2,0,8.2-10,16.5-10c8.2,0,8.2,10,16.5,10
	c8.2,0,8.2-10,16.5-10c8.2,0,8.2,10,16.5,10c8.2,0,8.2-10,16.5-10c8.2,0,8.2,10,16.5,10c8.2,0,8.2-10,16.5-10s8.2,10,16.5,10
	c8.2,0,8.2-10,16.5-10c8.2,0,8.2,10,16.5,10s8.2-10,16.5-10c8.2,0,8.2,10,16.5,10c8.2,0,8.2-10,16.5-10c8.2,0,8.2,10,16.5,10
	c8.2,0,8.2-10,16.5-10c8.2,0,8.2,10,16.5,10c8.2,0,8.2-10,16.5-10c8.2,0,8.2,10,16.5,10c8.2,0,8.2-10,16.5-10s8.2,10,16.5,10
	c8.2,0,8.2-10,16.5-10c8.2,0,8.2,10,16.5,10c8.2,0,8.2-10,16.5-10c8.2,0,8.2,10,16.5,10c8.2,0,8.2-10,16.5-10 M825.1,1
	c8.2,0,8.2,10,16.5,10c8.2,0,8.2-10,16.5-10c8.2,0,8.2,10,16.5,10c8.2,0,8.2-10,16.5-10c8.2,0,8.2,10,16.5,10c8.2,0,8.2-10,16.5-10
	s8.2,10,16.5,10c8.2,0,8.2-10,16.5-10c8.2,0,8.2,10,16.5,10c8.2,0,8.2-10,16.5-10c8.2,0,8.2,10,16.5,10c8.2,0,8.2-10,16.5-10
	c8.2,0,8.2,10,16.5,10c8.2,0,8.2-10,16.5-10c8.2,0,8.2,10,16.5,10c8.2,0,8.2-10,16.5-10c8.2,0,8.2,10,16.5,10c8.2,0,8.2-10,16.5-10
	c8.2,0,8.2,10,16.5,10c8.2,0,8.2-10,16.5-10c8.2,0,8.2,10,16.5,10s8.2-10,16.5-10c8.2,0,8.2,10,16.5,10c8.2,0,8.2-10,16.5-10
	c8.2,0,8.2,10,16.5,10c8.2,0,8.2-10,16.5-10c8.2,0,8.2,10,16.5,10 M1271.1,11c8.2,0,8.2-10,16.5-10c8.2,0,8.2,10,16.5,10
	c8.2,0,8.2-10,16.5-10c8.2,0,8.2,10,16.5,10c8.2,0,8.2-10,16.5-10c8.2,0,8.2,10,16.5,10s8.2-10,16.5-10c8.2,0,8.2,10,16.5,10
	c8.2,0,8.2-10,16.5-10c8.2,0,8.2,10,16.5,10c8.2,0,8.2-10,16.5-10c8.2,0,8.2,10,16.5,10c8.2,0,8.2-10,16.5-10c8.2,0,8.2,10,16.5,10
	c8.2,0,8.2-10,16.5-10c8.2,0,8.2,10,16.5,10c8.2,0,8.2-10,16.5-10c8.2,0,8.2,10,16.5,10c8.2,0,8.2-10,16.5-10c8.2,0,8.2,10,16.5,10
	c8.2,0,8.2-10,16.5-10s8.2,10,16.5,10c8.2,0,8.2-10,16.5-10c8.2,0,8.2,10,16.5,10c8.2,0,8.2-10,16.5-10c8.2,0,8.2,10,16.5,10
	c8.2,0,8.2-10,16.5-10"/>
</svg>
